<svg xmlns="http://www.w3.org/2000/svg" viewBox="-6.4 -6.4 140.8 140.8" preserveAspectRatio="xMidYMid meet" width="140.8" height="140.8">
    <path d="M114,106.5H29V36.8h70c13.8,0,25,11.2,25,25v34.7C124,102,119.5,106.5,114,106.5z" fill="#efd957"></path>
    <path d="M99,36.8H29v10h70c13.8,0,25,11.2,25,25v-10C124,48,112.8,36.8,99,36.8z" fill="#E7E7E7"></path>
    <path d="M44,106.5H14c-5.5,0-10-4.5-10-10v-35c0-13.8,11.2-25,25-25h0c13.8,0,25,11.2,25,25v35C54,102,49.5,106.5,44,106.5z" fill="#E7E7E7"></path>
    <polygon fill="#efd957" points="71.5,71.5 71.5,21.5 99.7,21.5 99.7,36.5 79.7,36.5 79.7,71.5"></polygon>
    <path d="M14,108h30c6.3,0,11.5-5.2,11.5-11.5v-35c0-10.2-5.8-19.1-14.3-23.5h23.4c0.8,0,1.5-0.7,1.5-1.5S65.5,35,64.7,35H29C14.4,35,2.5,46.9,2.5,61.5v35C2.5,102.8,7.7,108,14,108z M5.5,61.5C5.5,48.5,16,38,29,38s23.5,10.5,23.5,23.5v35c0,4.7-3.8,8.5-8.5,8.5H14c-4.7,0-8.5-3.8-8.5-8.5V61.5z" fill="#494949"></path>
    <path d="M14,63h30c0.8,0,1.5-0.7,1.5-1.5S44.8,60,44,60H14c-0.8,0-1.5,0.7-1.5,1.5S13.2,63,14,63z" fill="#494949"></path>
    <path d="M101.2,21.5c0-0.8-0.7-1.5-1.5-1.5H71.5c-0.8,0-1.5,0.7-1.5,1.5v45.9c0,3.1,2.5,5.6,5.6,5.6s5.6-2.5,5.6-5.6V38H99c13,0,23.5,10.5,23.5,23.5v35c0,4.7-3.8,8.5-8.5,8.5H59c-0.8,0-1.5,0.7-1.5,1.5s0.7,1.5,1.5,1.5h55c6.3,0,11.5-5.2,11.5-11.5v-35c0-13.9-10.7-25.3-24.3-26.4V21.5z M79.7,35c-0.8,0-1.5,0.7-1.5,1.5v30.9c0,1.4-1.2,2.6-2.6,2.6S73,68.8,73,67.4V23h25.2v12H79.7z" fill="#494949"></path>
</svg>